HIERARCHY
ROOT Hips
{
	OFFSET 0.000000 0.000000 0.000000
	CHANNELS 6 Xposition Yposition Zposition Xrotation Yrotation Zrotation
	JOINT LeftUpLeg_virtual
	{
		OFFSET 0.000000 0.000000 0.000000
		CHANNELS 3 Xrotation Yrotation Zrotation
		JOINT LeftUpLeg
		{
			OFFSET 11.394100 -6.187798 -0.413800
			CHANNELS 3 Xrotation Yrotation Zrotation
			JOINT LeftLeg
			{
				OFFSET 0.430247 -32.302673 3.732800
				CHANNELS 3 Xrotation Yrotation Zrotation
				JOINT LeftFoot
				{
					OFFSET -0.430247 -48.264931 -6.423300
					CHANNELS 3 Xrotation Yrotation Zrotation
					JOINT LeftToeBase
					{
						OFFSET 4.230900 -16.068199 23.438400
						CHANNELS 3 Xrotation Yrotation Zrotation
						JOINT LeftToe_End
						{
							OFFSET 4.510700 0.695400 19.974600
							CHANNELS 3 Xrotation Yrotation Zrotation
							End Site
							{
								OFFSET 0 0 0
							}
						}
					}
				}
			}
		}
	}
	JOINT RightUpLeg_virtual
	{
		OFFSET 0.000000 0.000000 0.000000
		CHANNELS 3 Xrotation Yrotation Zrotation
		JOINT RightUpLeg
		{
			OFFSET -11.333700 -6.187798 -0.413800
			CHANNELS 3 Xrotation Yrotation Zrotation
			JOINT RightLeg
			{
				OFFSET -0.430392 -32.302628 3.733000
				CHANNELS 3 Xrotation Yrotation Zrotation
				JOINT RightFoot
				{
					OFFSET 0.430392 -48.264973 -6.423500
					CHANNELS 3 Xrotation Yrotation Zrotation
					JOINT RightToeBase
					{
						OFFSET -4.230900 -16.068199 23.438400
						CHANNELS 3 Xrotation Yrotation Zrotation
						JOINT RightToe_End
						{
							OFFSET -4.510700 0.695400 19.974600
							CHANNELS 3 Xrotation Yrotation Zrotation
							End Site
							{
								OFFSET 0 0 0
							}
						}
					}
				}
			}
		}
	}
	JOINT Spine_virtual
	{
		OFFSET 0.000000 0.000000 0.000000
		CHANNELS 3 Xrotation Yrotation Zrotation
		JOINT Spine
		{
			OFFSET -0.002400 12.777504 0.315300
			CHANNELS 3 Xrotation Yrotation Zrotation
			JOINT Spine1
			{
				OFFSET -0.002067 5.816869 0.032633
				CHANNELS 3 Xrotation Yrotation Zrotation
				JOINT Spine1_split
				{
					OFFSET -0.002067 5.816869 0.032633
					CHANNELS 3 Xrotation Yrotation Zrotation
					JOINT Spine2
					{
						OFFSET -0.002067 5.816869 0.032633
						CHANNELS 3 Xrotation Yrotation Zrotation
						JOINT Neck_virtual
						{
							OFFSET 0.000000 0.000000 0.000000
							CHANNELS 3 Xrotation Yrotation Zrotation
							JOINT Neck
							{
								OFFSET -0.003700 21.199493 -0.826900
								CHANNELS 3 Xrotation Yrotation Zrotation
								JOINT Head
								{
									OFFSET 0.000000 20.442200 4.834800
									CHANNELS 3 Xrotation Yrotation Zrotation
									JOINT HeadTop_End
									{
										OFFSET 0.000000 34.668396 4.968400
										CHANNELS 3 Xrotation Yrotation Zrotation
										End Site
										{
											OFFSET 0 0 0
										}
									}
								}
							}
						}
						JOINT LeftShoulder_virtual
						{
							OFFSET 0.000000 0.000000 0.000000
							CHANNELS 3 Xrotation Yrotation Zrotation
							JOINT LeftShoulder
							{
								OFFSET 3.288150 8.794197 -1.372250
								CHANNELS 3 Xrotation Yrotation Zrotation
								JOINT LeftShoulder_split
								{
									OFFSET 3.288150 8.794197 -1.372250
									CHANNELS 3 Xrotation Yrotation Zrotation
									JOINT LeftArm
									{
										OFFSET 11.953299 -2.279007 -0.146200
										CHANNELS 3 Xrotation Yrotation Zrotation
										JOINT LeftForeArm
										{
											OFFSET 18.448900 0.000000 0.000000
											CHANNELS 3 Xrotation Yrotation Zrotation
											JOINT LeftHand
											{
												OFFSET 29.527798 0.000000 0.000000
												CHANNELS 3 Xrotation Yrotation Zrotation
												End Site
												{
													OFFSET 0 0 0
												}
											}
										}
									}
								}
							}
						}
						JOINT RightShoulder_virtual
						{
							OFFSET 0.000000 0.000000 0.000000
							CHANNELS 3 Xrotation Yrotation Zrotation
							JOINT RightShoulder
							{
								OFFSET -3.249400 8.794197 -1.372250
								CHANNELS 3 Xrotation Yrotation Zrotation
								JOINT RightShoulder_split
								{
									OFFSET -3.249400 8.794197 -1.372250
									CHANNELS 3 Xrotation Yrotation Zrotation
									JOINT RightArm
									{
										OFFSET -11.953299 -2.279007 -0.146200
										CHANNELS 3 Xrotation Yrotation Zrotation
										JOINT RightForeArm
										{
											OFFSET -18.448900 0.000000 0.000000
											CHANNELS 3 Xrotation Yrotation Zrotation
											JOINT RightHand
											{
												OFFSET -29.527802 0.000000 0.000000
												CHANNELS 3 Xrotation Yrotation Zrotation
												End Site
												{
													OFFSET 0 0 0
												}
											}
										}
									}
								}
							}
						}
					}
				}
			}
		}
	}
}
MOTION
Frames: 6
Frame Time: 0.03333333
2.297272 85.878204 -1.885044 0.000000 0.000000 0.000000 8.416347 -69.948001 11.466387 -41.465877 6.523606 27.822808 40.622407 -8.788971 0.821738 -2.972541 -2.434909 -16.676108 -0.142059 0.102932 1.391219 0.000000 0.000000 0.000000 5.395661 -68.084569 9.385698 -30.134446 -8.086790 -32.528366 35.201142 -0.706548 -2.413826 -4.171988 -4.147836 25.273057 -1.506123 0.666992 -1.000436 0.000000 0.000000 0.000000 1.332083 -65.476215 5.890129 16.799096 0.397179 -4.274711 4.701758 0.960742 -2.687858 0.455482 2.176728 0.530041 0.000000 0.000000 0.000000 4.079164 0.661036 -2.567744 -4.814516 3.215280 2.818380 -15.858658 52.687567 -3.103765 0.000000 0.000000 0.000000 4.836472 0.316828 -2.758149 2.744094 -2.992756 -10.787330 -3.506156 -6.013237 1.026477 -39.155880 28.488864 -33.365901 3.224959 -42.800482 4.787857 0.000000 0.000000 0.000000 5.520496 0.806035 -2.383617 1.712297 5.647223 9.542744 4.880096 5.424187 0.314478 3.938081 -9.546284 54.724053 -20.619469 35.243387 13.307345 0.000000 0.000000 0.000000 
1.714746 86.634094 -0.087353 0.000000 0.000000 0.000000 7.624160 -70.237021 10.508606 -41.557671 7.664459 28.097914 41.158682 -8.613313 0.949989 -2.812922 -2.101297 -16.984833 -0.636775 -0.083197 2.027898 0.000000 0.000000 0.000000 6.730109 -68.939517 10.016623 -29.489465 -7.595433 -31.674753 35.497200 -0.968620 -2.368955 -3.107318 -4.289565 24.783435 -1.673817 0.441099 -0.441111 0.000000 0.000000 0.000000 2.657299 -65.977128 6.547435 16.537643 0.229687 -4.205005 4.668694 0.795943 -2.627199 0.327561 2.250398 0.502814 0.000000 0.000000 0.000000 3.766519 0.568492 -2.536604 -5.082623 3.370324 2.357147 -14.999121 52.691477 -3.757688 0.000000 0.000000 0.000000 4.747374 0.160240 -2.722930 2.764441 -3.492362 -10.502856 -3.674804 -5.922909 1.300087 -40.120016 28.626337 -32.738633 3.148519 -43.820076 4.911213 0.000000 0.000000 0.000000 5.465503 0.759625 -2.343844 1.697468 6.230607 9.914750 4.272069 4.595103 -0.049476 2.765043 -9.631747 54.187958 -20.146179 33.849926 12.803108 0.000000 0.000000 0.000000 
1.047446 87.646217 2.290047 0.000000 0.000000 0.000000 7.266243 -70.835072 9.768103 -41.059761 9.119434 28.043053 41.885503 -8.074810 0.888573 -3.646157 -1.272817 -16.247009 -1.601776 -0.282722 2.684887 0.000000 0.000000 0.000000 8.256173 -69.988532 10.692017 -29.312098 -6.411837 -30.289840 36.774152 -1.227127 -2.124305 -2.434899 -4.965957 23.948930 -2.883165 0.187059 0.268681 0.000000 0.000000 0.000000 4.409955 -66.620395 7.420057 16.130209 0.061169 -3.937359 4.422068 0.399543 -2.482789 0.313079 2.242813 0.387022 0.000000 0.000000 0.000000 3.282661 0.186982 -2.368458 -5.176799 3.982930 1.802577 -14.087134 52.781383 -4.513208 0.000000 0.000000 0.000000 4.436742 -0.264953 -2.567369 2.767744 -4.054320 -10.410280 -3.681528 -5.439322 1.473705 -41.537638 28.508346 -31.733028 4.408416 -43.715772 5.955571 0.000000 0.000000 0.000000 5.126806 0.426951 -2.187338 1.765448 6.941680 10.286956 3.691412 3.886439 -0.278557 0.624923 -9.637692 53.385995 -19.087389 30.837717 11.677025 0.000000 0.000000 0.000000 
0.349146 88.504356 4.889359 0.000000 0.000000 0.000000 7.517696 -71.571988 9.473277 -40.358502 10.564096 27.699731 43.077709 -7.317280 0.707100 -5.514212 -0.165397 -14.501477 -2.425695 -0.456260 3.073654 0.000000 0.000000 0.000000 10.041415 -70.954157 11.605542 -29.861222 -4.731194 -28.512242 38.263430 -1.330531 -1.760123 -2.787283 -5.941735 22.866140 -4.240968 0.004693 0.854898 0.000000 0.000000 0.000000 6.236526 -67.164037 8.336377 15.671773 -0.128514 -3.531779 4.026700 -0.179368 -2.270466 0.361364 2.088359 0.326500 0.000000 0.000000 0.000000 2.736480 -0.421337 -2.096749 -5.067340 4.932094 1.228903 -13.375415 52.824331 -5.130620 0.000000 0.000000 0.000000 3.970751 -0.892354 -2.317655 2.762202 -4.622627 -10.508545 -3.713842 -4.706215 1.610283 -43.012010 28.015069 -30.696687 6.631209 -42.438810 7.635626 0.000000 0.000000 0.000000 4.601101 -0.153427 -1.956971 1.930591 7.601534 10.631806 3.317031 3.477654 -0.404502 -1.915741 -9.312560 52.707494 -17.829019 27.405121 10.374485 0.000000 0.000000 0.000000 
-0.284478 88.950737 7.220478 0.000000 0.000000 0.000000 8.593772 -72.090591 9.933172 -40.043364 11.689821 27.197007 44.923199 -6.638027 0.544094 -8.157358 0.854850 -12.208301 -2.767214 -0.563080 3.085712 0.000000 0.000000 0.000000 11.876328 -71.406431 12.638293 -31.184830 -2.989248 -26.547052 39.819682 -1.296875 -1.347826 -4.564627 -6.988481 21.521426 -4.539888 0.010768 1.124238 0.000000 0.000000 0.000000 8.186078 -67.505840 9.372953 15.211468 -0.347841 -3.058764 3.575334 -0.853880 -2.031317 0.420824 1.656825 0.337331 0.000000 0.000000 0.000000 2.235656 -1.151158 -1.789687 -4.850391 6.070834 0.658281 -13.227710 52.602077 -5.312647 0.000000 0.000000 0.000000 3.463667 -1.608746 -2.031192 2.749487 -5.137827 -10.647570 -3.799792 -4.005768 1.656922 -44.304213 26.901205 -29.851943 9.261912 -40.438798 9.567557 0.000000 0.000000 0.000000 4.006035 -0.888817 -1.709965 2.174158 8.038830 10.908359 3.043711 3.262177 -0.508850 -4.186867 -8.618554 52.429437 -16.601932 24.623720 9.160493 0.000000 0.000000 0.000000 
-0.866789 88.620651 9.201031 0.000000 0.000000 0.000000 10.639664 -72.159965 11.335181 -40.574155 12.166122 26.711311 47.699094 -6.411086 0.569861 -11.062636 1.459445 -10.061402 -2.857723 -0.599706 2.964910 0.000000 0.000000 0.000000 13.636996 -71.354522 13.787297 -33.279482 -1.647086 -24.689886 41.683644 -1.061501 -0.890274 -7.615078 -7.945955 20.172388 -3.384671 0.191191 1.028434 0.000000 0.000000 0.000000 10.132269 -67.351088 10.484809 14.698200 -0.574763 -2.626520 3.166968 -1.520037 -1.820459 0.447002 1.143390 0.389154 0.000000 0.000000 0.000000 1.894013 -1.873834 -1.517940 -4.674898 7.256804 0.086430 -13.966244 51.972214 -4.817303 0.000000 0.000000 0.000000 3.038003 -2.286125 -1.765596 2.751349 -5.575005 -10.691567 -3.854428 -3.362998 1.520829 -45.376256 25.129586 -29.197003 11.837606 -38.202676 11.443867 0.000000 0.000000 0.000000 3.464653 -1.650500 -1.519616 2.480340 8.113750 11.061591 2.944017 3.056666 -0.533917 -5.709755 -7.625362 52.696788 -15.497598 23.070383 8.119698 0.000000 0.000000 0.000000 
